<svg width="330" height="300" viewBox="0 0 330 300" fill="none" xmlns="http://www.w3.org/2000/svg">
<rect width="330" height="300" fill="white"/>
<rect x="5" y="5" width="320" height="290" rx="5" fill="white" stroke="black" stroke-width="10"/>
<path d="M121.5 149.2C125.633 150.4 128.8 152.5 131 155.5C133.267 158.5 134.4 162.2 134.4 166.6C134.4 172.667 132.233 177.433 127.9 180.9C123.633 184.3 117.667 186 110 186H77.7V114.8H109C116.333 114.8 122.1 116.467 126.3 119.8C130.5 123.067 132.6 127.6 132.6 133.4C132.6 137.133 131.6 140.4 129.6 143.2C127.667 145.933 124.967 147.933 121.5 149.2ZM90.3 144.8H106.9C115.833 144.8 120.3 141.467 120.3 134.8C120.3 131.467 119.2 128.967 117 127.3C114.8 125.633 111.433 124.8 106.9 124.8H90.3V144.8ZM108.6 176C113.267 176 116.667 175.167 118.8 173.5C121 171.833 122.1 169.2 122.1 165.6C122.1 161.933 121 159.233 118.8 157.5C116.667 155.767 113.267 154.9 108.6 154.9H90.3V176H108.6ZM194.143 135.5V186H181.843V177.9C180.31 180.7 178.11 182.9 175.243 184.5C172.376 186.033 169.11 186.8 165.443 186.8C161.043 186.8 157.143 185.733 153.743 183.6C150.343 181.467 147.71 178.433 145.843 174.5C143.976 170.567 143.043 166 143.043 160.8C143.043 155.6 143.976 151 145.843 147C147.776 142.933 150.443 139.8 153.843 137.6C157.243 135.333 161.11 134.2 165.443 134.2C169.11 134.2 172.376 135 175.243 136.6C178.11 138.133 180.31 140.3 181.843 143.1V135.5H194.143ZM168.843 177C172.976 177 176.176 175.567 178.443 172.7C180.71 169.833 181.843 165.8 181.843 160.6C181.843 155.267 180.71 151.167 178.443 148.3C176.176 145.433 172.943 144 168.743 144C164.61 144 161.376 145.5 159.043 148.5C156.776 151.433 155.643 155.533 155.643 160.8C155.643 166 156.776 170 159.043 172.8C161.376 175.6 164.643 177 168.843 177ZM230.657 186.8C225.524 186.8 220.99 185.733 217.057 183.6C213.19 181.467 210.19 178.433 208.057 174.5C205.99 170.5 204.957 165.833 204.957 160.5C204.957 155.167 205.99 150.533 208.057 146.6C210.19 142.6 213.19 139.533 217.057 137.4C220.99 135.267 225.524 134.2 230.657 134.2C235.724 134.2 240.19 135.267 244.057 137.4C247.924 139.533 250.89 142.6 252.957 146.6C255.09 150.533 256.157 155.167 256.157 160.5C256.157 165.833 255.09 170.5 252.957 174.5C250.89 178.433 247.924 181.467 244.057 183.6C240.19 185.733 235.724 186.8 230.657 186.8ZM230.557 177C234.824 177 238.057 175.633 240.257 172.9C242.524 170.1 243.657 165.967 243.657 160.5C243.657 155.1 242.524 151 240.257 148.2C237.99 145.333 234.79 143.9 230.657 143.9C226.457 143.9 223.224 145.333 220.957 148.2C218.69 151 217.557 155.1 217.557 160.5C217.557 165.967 218.657 170.1 220.857 172.9C223.124 175.633 226.357 177 230.557 177Z" fill="black"/>
</svg>
