<svg width="330" height="300" viewBox="0 0 330 300" fill="none" xmlns="http://www.w3.org/2000/svg">
<rect width="330" height="300" fill="white"/>
<rect x="5" y="5" width="320" height="290" rx="5" fill="white" stroke="black" stroke-width="10"/>
<path d="M121.5 149.2C125.633 150.4 128.8 152.5 131 155.5C133.267 158.5 134.4 162.2 134.4 166.6C134.4 172.667 132.233 177.433 127.9 180.9C123.633 184.3 117.667 186 110 186H77.7V114.8H109C116.333 114.8 122.1 116.467 126.3 119.8C130.5 123.067 132.6 127.6 132.6 133.4C132.6 137.133 131.6 140.4 129.6 143.2C127.667 145.933 124.967 147.933 121.5 149.2ZM90.3 144.8H106.9C115.833 144.8 120.3 141.467 120.3 134.8C120.3 131.467 119.2 128.967 117 127.3C114.8 125.633 111.433 124.8 106.9 124.8H90.3V144.8ZM108.6 176C113.267 176 116.667 175.167 118.8 173.5C121 171.833 122.1 169.2 122.1 165.6C122.1 161.933 121 159.233 118.8 157.5C116.667 155.767 113.267 154.9 108.6 154.9H90.3V176H108.6ZM191.843 135.5V186H179.643V178.2C178.043 181 175.91 183.133 173.243 184.6C170.576 186.067 167.51 186.8 164.043 186.8C151.71 186.8 145.543 179.867 145.543 166V135.5H157.943V166.1C157.943 169.767 158.676 172.467 160.143 174.2C161.676 175.933 164.01 176.8 167.143 176.8C170.81 176.8 173.743 175.6 175.943 173.2C178.143 170.8 179.243 167.6 179.243 163.6V135.5H191.843ZM164.643 129L174.643 108.4H187.443L172.743 129H164.643ZM253.713 135.5V186H241.413V177.9C239.88 180.7 237.68 182.9 234.813 184.5C231.947 186.033 228.68 186.8 225.013 186.8C220.613 186.8 216.713 185.733 213.313 183.6C209.913 181.467 207.28 178.433 205.413 174.5C203.547 170.567 202.613 166 202.613 160.8C202.613 155.6 203.547 151 205.413 147C207.347 142.933 210.013 139.8 213.413 137.6C216.813 135.333 220.68 134.2 225.013 134.2C228.68 134.2 231.947 135 234.813 136.6C237.68 138.133 239.88 140.3 241.413 143.1V135.5H253.713ZM228.413 177C232.547 177 235.747 175.567 238.013 172.7C240.28 169.833 241.413 165.8 241.413 160.6C241.413 155.267 240.28 151.167 238.013 148.3C235.747 145.433 232.513 144 228.313 144C224.18 144 220.947 145.5 218.613 148.5C216.347 151.433 215.213 155.533 215.213 160.8C215.213 166 216.347 170 218.613 172.8C220.947 175.6 224.213 177 228.413 177Z" fill="black"/>
</svg>
