<svg width="330" height="300" viewBox="0 0 330 300" fill="none" xmlns="http://www.w3.org/2000/svg">
<rect width="330" height="300" fill="white"/>
<rect x="5" y="5" width="320" height="290" rx="5" fill="white" stroke="black" stroke-width="10"/>
<path d="M123.7 186L90.6 152.7V186H77.7V114.8H90.6V146.7L122.4 114.8H137.9L103.3 149L139.5 186H123.7ZM187.113 161.4H152.313C152.58 166.8 153.913 170.8 156.313 173.4C158.78 175.933 162.413 177.2 167.213 177.2C172.747 177.2 177.88 175.4 182.613 171.8L186.213 180.4C183.813 182.333 180.847 183.9 177.313 185.1C173.847 186.233 170.313 186.8 166.713 186.8C158.447 186.8 151.947 184.467 147.213 179.8C142.48 175.133 140.113 168.733 140.113 160.6C140.113 155.467 141.147 150.9 143.213 146.9C145.28 142.9 148.18 139.8 151.913 137.6C155.647 135.333 159.88 134.2 164.613 134.2C171.547 134.2 177.013 136.467 181.013 141C185.08 145.467 187.113 151.633 187.113 159.5V161.4ZM164.913 143.2C161.58 143.2 158.847 144.2 156.713 146.2C154.647 148.133 153.313 150.967 152.713 154.7H176.213C175.813 150.9 174.647 148.033 172.713 146.1C170.847 144.167 168.247 143.2 164.913 143.2ZM160.513 129L170.513 108.4H183.313L168.613 129H160.513ZM220.598 186.8C215.465 186.8 210.932 185.733 206.998 183.6C203.132 181.467 200.132 178.433 197.998 174.5C195.932 170.5 194.898 165.833 194.898 160.5C194.898 155.167 195.932 150.533 197.998 146.6C200.132 142.6 203.132 139.533 206.998 137.4C210.932 135.267 215.465 134.2 220.598 134.2C225.665 134.2 230.132 135.267 233.998 137.4C237.865 139.533 240.832 142.6 242.898 146.6C245.032 150.533 246.098 155.167 246.098 160.5C246.098 165.833 245.032 170.5 242.898 174.5C240.832 178.433 237.865 181.467 233.998 183.6C230.132 185.733 225.665 186.8 220.598 186.8ZM220.498 177C224.765 177 227.998 175.633 230.198 172.9C232.465 170.1 233.598 165.967 233.598 160.5C233.598 155.1 232.465 151 230.198 148.2C227.932 145.333 224.732 143.9 220.598 143.9C216.398 143.9 213.165 145.333 210.898 148.2C208.632 151 207.498 155.1 207.498 160.5C207.498 165.967 208.598 170.1 210.798 172.9C213.065 175.633 216.298 177 220.498 177Z" fill="black"/>
</svg>
