<svg width="79" height="99" viewBox="0 0 79 99" fill="none" xmlns="http://www.w3.org/2000/svg">
<path d="M13.4498 21.4362V49.905C13.4498 67.1742 30.8319 79.7169 37.5764 83.9306H41.8774C35.1328 79.7169 17.7508 67.1742 17.7508 49.905V21.4823H19.5793C29.3454 21.4823 37.3899 17.5815 41.8633 14.8628H37.5623C33.3734 17.4086 26.0527 20.9908 17.1201 21.4362H13.4498Z" fill="url(#paint0_linear)"/>
<path d="M15.2439 7.81363H19.5449C17.352 7.81798 15.169 7.51927 13.0581 6.92599C12.5517 6.78373 12.0282 6.71154 11.5022 6.71143H7.20123C7.72723 6.71154 8.25074 6.78373 8.75708 6.92599C10.868 7.51927 13.051 7.81798 15.2439 7.81363Z" fill="url(#paint1_linear)"/>
<path d="M46.2159 56.2345H43.6922V58.9934C43.6922 62.6886 40.9432 65.693 37.5629 65.693H41.864C45.2442 65.693 47.9933 62.6882 47.9933 58.9934V56.2345H50.5174C53.8976 56.2345 56.6467 53.2297 56.6467 49.535C56.6467 45.8403 53.8976 42.8325 50.5174 42.8325H47.9933V40.0735C47.9933 36.3783 45.2442 33.3739 41.864 33.3739H37.5629C40.9432 33.3739 43.6922 36.3787 43.6922 40.0735V42.8325H46.2164C49.5966 42.8325 52.3456 45.8397 52.3456 49.535C52.3456 53.2303 49.596 56.2345 46.2159 56.2345Z" fill="url(#paint2_linear)"/>
<path d="M59.8837 7.81056H64.1845C53.8263 7.81056 45.6717 1.40308 45.596 1.33941C44.5472 0.47667 43.2316 0.00336443 41.8728 0H37.5717C38.9306 0.00326257 40.2463 0.476499 41.2952 1.33921C41.3711 1.40308 49.5254 7.81056 59.8837 7.81056Z" fill="url(#paint3_linear)"/>
<path d="M59.8646 21.4817H64.1658C64.7619 21.4817 65.3658 21.4669 65.9733 21.4362H61.6722C61.0647 21.4669 60.4607 21.4817 59.8646 21.4817Z" fill="url(#paint4_linear)"/>
<path d="M74.1708 13.5432V49.9049C74.1708 80.1738 41.5929 97.1484 40.206 97.853C39.3884 98.2736 38.4822 98.4935 37.5624 98.4947H41.8635C42.7832 98.4936 43.6895 98.2736 44.5071 97.853C45.8939 97.1478 78.4718 80.1733 78.4718 49.9049V13.5432C78.4718 11.4318 77.5803 9.43812 76.0517 8.1444C74.9871 7.22597 73.6287 6.71775 72.2218 6.71143H67.921C69.328 6.71775 70.6863 7.22597 71.751 8.1444C73.2792 9.43812 74.1708 11.4315 74.1708 13.5432Z" fill="url(#paint5_linear)"/>
<path d="M46.2159 42.8325C49.5961 42.8325 52.3452 45.8398 52.3452 49.535C52.3452 53.2302 49.5961 56.2345 46.2159 56.2345H43.6923V58.9935C43.6923 62.6882 40.9433 65.693 37.563 65.6929C34.1828 65.6928 31.4311 62.6881 31.4311 58.9934V56.2344H28.9075C25.5268 56.2344 22.7777 53.2296 22.7777 49.5349C22.7777 45.8402 25.5268 42.8324 28.9075 42.8324H31.4311V40.0734C31.4311 36.3787 34.1829 33.3739 37.563 33.3739C40.9432 33.3739 43.6923 36.3788 43.6923 40.0735V42.8325H46.2159Z" fill="#FDD3CF"/>
<path d="M71.7507 8.14442C73.2793 9.43823 74.1708 11.4323 74.1708 13.5432V49.905C74.1708 80.1738 41.593 97.1479 40.2062 97.8536C39.3891 98.2753 38.4827 98.4953 37.5629 98.4953C36.6431 98.4953 35.7367 98.2753 34.9195 97.8536C33.5313 97.1484 0.951294 80.1738 0.951294 49.9055V13.5431C0.951294 11.4318 1.8432 9.43814 3.37228 8.14432C4.43666 7.22598 5.79474 6.71778 7.20139 6.71144C7.72739 6.71156 8.2509 6.78375 8.75724 6.926C10.8682 7.5192 13.0512 7.81788 15.2441 7.81354C25.5997 7.81354 33.7553 1.39861 33.8535 1.32113C34.9063 0.470992 36.2181 0.00494909 37.5721 0C38.9309 0.00338566 40.2466 0.476649 41.2954 1.33931C41.3713 1.40288 49.5257 7.81036 59.8839 7.81036C62.0747 7.81473 64.2557 7.51706 66.3649 6.9258C66.8714 6.78355 67.395 6.71136 67.9211 6.71124C69.328 6.71769 70.6862 7.22598 71.7507 8.14442ZM61.6724 49.905V21.4362C61.0649 21.467 60.461 21.4819 59.8648 21.4819C50.1564 21.4819 42.0365 17.5826 37.5626 14.8627C33.0892 17.5815 25.0447 21.4823 15.2786 21.4823C14.6751 21.4823 14.0656 21.4669 13.4501 21.4361V49.905C13.4501 67.174 30.8323 79.7168 37.5768 83.9306C44.3521 79.7402 61.6724 67.3256 61.6724 49.905Z" fill="#FDD3CF"/>
<g style="mix-blend-mode:multiply" opacity="0.4" filter="url(#filter0_f)">
<path d="M46.8556 46.1261C48.5788 46.1261 49.9798 47.6575 49.9798 49.541C49.9798 51.4246 48.5788 52.9581 46.8556 52.9581H42.5284C41.8649 52.9581 41.3259 53.5455 41.3259 54.2712V59.0002C41.3259 60.8842 39.9242 62.4164 38.2006 62.4164C36.4771 62.4164 35.0757 60.8842 35.0757 59.0002V54.2711C35.0757 53.5454 34.5374 52.958 33.874 52.958H29.5467C27.8236 52.958 26.4232 51.4249 26.4232 49.5409C26.4232 47.657 27.8241 46.126 29.5467 46.126H33.8738C34.5372 46.126 35.0755 45.5377 35.0755 44.8117V40.0817C35.0755 38.1978 36.4782 36.6656 38.2004 36.6656C39.9227 36.6656 41.3257 38.1978 41.3257 40.0817V44.8118C41.3257 45.5378 41.8647 46.1261 42.5282 46.1261H46.8556Z" fill="#FF3236"/>
</g>
<g style="mix-blend-mode:multiply" opacity="0.4" filter="url(#filter1_f)">
<path d="M70.5504 10.7462C70.9499 11.095 71.269 11.526 71.4857 12.0097C71.7025 12.4933 71.8117 13.0181 71.8059 13.548V49.9085C71.8059 78.1098 40.8899 94.2111 39.5759 94.8839C39.151 95.1018 38.6803 95.2155 38.2026 95.2155C37.7249 95.2155 37.2541 95.1018 36.8292 94.8839C35.5141 94.2115 4.59573 78.1098 4.59573 49.9085V13.5479C4.59008 13.018 4.69944 12.4932 4.91631 12.0095C5.13318 11.5258 5.45241 11.0948 5.85203 10.7461C6.40832 10.2695 7.11634 10.006 7.84936 10.003C8.11949 10.0031 8.38832 10.0399 8.64854 10.1123C10.9942 10.7716 13.4199 11.1037 15.8567 11.0992C27.2703 11.0992 36.165 4.0593 36.2708 3.97407C36.8174 3.52824 37.5007 3.28324 38.2065 3.28003C38.9125 3.28241 39.5956 3.52972 40.1391 3.97963C40.2405 4.06277 49.1219 11.0963 60.5449 11.0963C62.9818 11.1006 65.4076 10.7695 67.7539 10.1123C68.0147 10.0386 68.2844 10.0013 68.5554 10.0014C69.2878 10.0057 69.9948 10.2696 70.5504 10.7462ZM65.3173 49.9086V17.8516C63.7097 18.0905 62.0867 18.21 60.4614 18.2092C50.1887 18.2092 41.833 13.506 38.2026 11.0738C34.5738 13.506 26.2383 18.2092 15.9508 18.2092C14.3223 18.2099 12.6959 18.0904 11.0851 17.8516V49.9085C11.0851 70.5322 32.505 84.3733 38.2028 87.6888C43.9 84.3733 65.3175 70.5322 65.3175 49.9085" fill="#FF3236"/>
</g>
<path d="M7.10553 17.8516V49.9083C7.10553 70.5321 28.5255 84.3731 34.2233 87.6886H35.2549C29.5573 84.3731 8.13723 70.5321 8.13723 49.9083V17.8516H7.10553Z" fill="url(#paint6_linear)"/>
<path d="M12.9091 11.099C10.4722 11.1035 8.04652 10.7714 5.70085 10.1121C5.44063 10.0397 5.17175 10.0029 4.90162 10.0028H3.86987C4.14 10.0029 4.40884 10.0397 4.66905 10.1121C7.01472 10.7714 9.44044 11.1035 11.8773 11.099H12.9091Z" fill="url(#paint7_linear)"/>
<path d="M13.0032 18.2092C23.2908 18.2092 31.6262 13.506 35.2551 11.0739H34.2234C30.5945 13.506 22.259 18.2092 11.9714 18.2092H13.0032Z" fill="url(#paint8_linear)"/>
<path d="M35.2529 62.4162C36.9764 62.4162 38.3782 60.8839 38.3782 59.0001V54.2708C38.3782 53.5457 38.9173 52.9578 39.5807 52.9578H38.5493C37.8859 52.9578 37.3468 53.5453 37.3468 54.2708V59.0001C37.3468 60.8839 35.9451 62.4162 34.2215 62.4162H35.2529Z" fill="url(#paint9_linear)"/>
<path d="M35.2528 36.6656H34.2211C35.9446 36.6656 37.3464 38.1979 37.3464 40.0818V44.8118C37.3464 45.5378 37.8855 46.1261 38.5489 46.1261H39.5807C38.9173 46.1261 38.3782 45.5378 38.3782 44.8118V40.0818C38.3782 38.1979 36.9764 36.6656 35.2528 36.6656Z" fill="url(#paint10_linear)"/>
<path d="M42.8765 46.1261C44.5997 46.1261 46.0007 47.6574 46.0007 49.541C46.0007 51.4245 44.5997 52.958 42.8765 52.958H43.9083C45.6315 52.958 47.0325 51.425 47.0325 49.541C47.0325 47.6569 45.6315 46.1261 43.9083 46.1261H42.8765Z" fill="url(#paint11_linear)"/>
<path d="M56.5652 11.096H57.5969C46.1744 11.096 37.2927 4.06253 37.1912 3.97939C36.6478 3.52948 35.9646 3.28217 35.2587 3.27979H34.2269C34.9328 3.28217 35.616 3.52948 36.1594 3.97939C36.2612 4.06253 45.1427 11.096 56.5652 11.096Z" fill="url(#paint12_linear)"/>
<path d="M57.5134 18.2092C59.1387 18.2099 60.7618 18.0904 62.3694 17.8516H61.3376C59.73 18.0904 58.1069 18.2099 56.4817 18.2092H57.5134Z" fill="url(#paint13_linear)"/>
<path d="M67.8261 13.5478V49.9084C67.8261 78.1097 36.9104 94.211 35.5964 94.8838C35.1714 95.101 34.701 95.2146 34.2236 95.2154H35.2553C35.7329 95.2147 36.2035 95.1011 36.6287 94.8838C37.9427 94.2114 68.8584 78.1097 68.8584 49.9084V13.5478C68.8642 13.0179 68.7549 12.4931 68.5382 12.0095C68.3214 11.5258 68.0024 11.0948 67.6029 10.746C67.0471 10.2692 66.3397 10.0052 65.607 10.0011H64.5753C65.3077 10.0054 66.0148 10.2694 66.5703 10.7461C66.9698 11.0948 67.289 11.5258 67.5058 12.0095C67.7225 12.4931 67.8318 13.0179 67.8261 13.5478Z" fill="url(#paint14_linear)"/>
<path d="M42.8765 46.1261C44.5996 46.1261 46.0007 47.6575 46.0007 49.541C46.0007 51.4246 44.5996 52.9581 42.8765 52.9581H38.5492C37.8858 52.9581 37.3467 53.5455 37.3467 54.2712V59.0002C37.3467 60.8842 35.945 62.4164 34.2214 62.4164C32.4979 62.4164 31.0965 60.8842 31.0965 59.0002V54.2711C31.0965 53.5454 30.5583 52.958 29.8948 52.958H25.5676C23.8444 52.958 22.444 51.4249 22.444 49.5409C22.444 47.657 23.8449 46.126 25.5676 46.126H29.8946C30.5581 46.126 31.0963 45.5377 31.0963 44.8117V40.0817C31.0963 38.1978 32.499 36.6656 34.2213 36.6656C35.9435 36.6656 37.3465 38.1978 37.3465 40.0817V44.8118C37.3465 45.5378 37.8856 46.1261 38.549 46.1261H42.8765Z" fill="#F0FAFD"/>
<path d="M66.5708 10.7462C66.9703 11.095 67.2894 11.526 67.5061 12.0097C67.7229 12.4933 67.8321 13.0181 67.8263 13.548V49.9085C67.8263 78.1098 36.9103 94.2111 35.5963 94.8839C35.1714 95.1018 34.7007 95.2155 34.223 95.2155C33.7453 95.2155 33.2745 95.1018 32.8496 94.8839C31.5345 94.2115 0.616175 78.1098 0.616175 49.9085V13.5479C0.610529 13.018 0.719886 12.4932 0.936758 12.0095C1.15363 11.5258 1.47286 11.0948 1.87247 10.7461C2.42877 10.2695 3.13679 10.006 3.86981 10.003C4.13994 10.0031 4.40877 10.0399 4.66898 10.1123C7.01464 10.7716 9.44035 11.1037 11.8772 11.0992C23.2908 11.0992 32.1854 4.0593 32.2911 3.97407C32.8378 3.52824 33.5211 3.28324 34.2269 3.28003C34.9328 3.28241 35.616 3.52972 36.1595 3.97963C36.2609 4.06277 45.1423 11.0963 56.5653 11.0963C59.0021 11.1006 61.428 10.7695 63.7743 10.1123C64.0351 10.0386 64.3047 10.0013 64.5757 10.0014C65.3082 10.0057 66.0152 10.2696 66.5708 10.7462ZM61.3377 49.9085V17.8516C59.7301 18.0905 58.1071 18.21 56.4818 18.2092C46.2091 18.2092 37.8534 13.506 34.223 11.0738C30.5942 13.506 22.2587 18.2092 11.9712 18.2092C10.3427 18.2099 8.71636 18.0904 7.10551 17.8516V49.9085C7.10551 70.5322 28.5254 84.3733 34.2232 87.6888C39.9204 84.3733 61.3377 70.5322 61.3377 49.9085Z" fill="#F0FAFD"/>
<defs>
<filter id="filter0_f" x="23.4232" y="33.6656" width="29.5566" height="31.7507" filterUnits="userSpaceOnUse" color-interpolation-filters="sRGB">
<feFlood flood-opacity="0" result="BackgroundImageFix"/>
<feBlend mode="normal" in="SourceGraphic" in2="BackgroundImageFix" result="shape"/>
<feGaussianBlur stdDeviation="1.5" result="effect1_foregroundBlur"/>
</filter>
<filter id="filter1_f" x="1.59552" y="0.280029" width="73.2106" height="97.9355" filterUnits="userSpaceOnUse" color-interpolation-filters="sRGB">
<feFlood flood-opacity="0" result="BackgroundImageFix"/>
<feBlend mode="normal" in="SourceGraphic" in2="BackgroundImageFix" result="shape"/>
<feGaussianBlur stdDeviation="1.5" result="effect1_foregroundBlur"/>
</filter>
<linearGradient id="paint0_linear" x1="42.8365" y1="0" x2="42.8365" y2="98.4947" gradientUnits="userSpaceOnUse">
<stop stop-color="#FFAAA0"/>
<stop offset="1" stop-color="#FFD3CF"/>
</linearGradient>
<linearGradient id="paint1_linear" x1="42.8365" y1="0" x2="42.8365" y2="98.4947" gradientUnits="userSpaceOnUse">
<stop stop-color="#FFAAA0"/>
<stop offset="1" stop-color="#FFD3CF"/>
</linearGradient>
<linearGradient id="paint2_linear" x1="42.8365" y1="0" x2="42.8365" y2="98.4947" gradientUnits="userSpaceOnUse">
<stop stop-color="#FFAAA0"/>
<stop offset="1" stop-color="#FFD3CF"/>
</linearGradient>
<linearGradient id="paint3_linear" x1="42.8365" y1="0" x2="42.8365" y2="98.4947" gradientUnits="userSpaceOnUse">
<stop stop-color="#FFAAA0"/>
<stop offset="1" stop-color="#FFD3CF"/>
</linearGradient>
<linearGradient id="paint4_linear" x1="42.8365" y1="0" x2="42.8365" y2="98.4947" gradientUnits="userSpaceOnUse">
<stop stop-color="#FFAAA0"/>
<stop offset="1" stop-color="#FFD3CF"/>
</linearGradient>
<linearGradient id="paint5_linear" x1="42.8365" y1="0" x2="42.8365" y2="98.4947" gradientUnits="userSpaceOnUse">
<stop stop-color="#FFAAA0"/>
<stop offset="1" stop-color="#FFD3CF"/>
</linearGradient>
<linearGradient id="paint6_linear" x1="36.3642" y1="3.27979" x2="36.3642" y2="95.2154" gradientUnits="userSpaceOnUse">
<stop stop-color="#BEC8FF"/>
<stop offset="1" stop-color="#E6E6FD"/>
</linearGradient>
<linearGradient id="paint7_linear" x1="36.3642" y1="3.27979" x2="36.3642" y2="95.2154" gradientUnits="userSpaceOnUse">
<stop stop-color="#BEC8FF"/>
<stop offset="1" stop-color="#E6E6FD"/>
</linearGradient>
<linearGradient id="paint8_linear" x1="36.3642" y1="3.27979" x2="36.3642" y2="95.2154" gradientUnits="userSpaceOnUse">
<stop stop-color="#BEC8FF"/>
<stop offset="1" stop-color="#E6E6FD"/>
</linearGradient>
<linearGradient id="paint9_linear" x1="36.3642" y1="3.27979" x2="36.3642" y2="95.2154" gradientUnits="userSpaceOnUse">
<stop stop-color="#BEC8FF"/>
<stop offset="1" stop-color="#E6E6FD"/>
</linearGradient>
<linearGradient id="paint10_linear" x1="36.3642" y1="3.27979" x2="36.3642" y2="95.2154" gradientUnits="userSpaceOnUse">
<stop stop-color="#BEC8FF"/>
<stop offset="1" stop-color="#E6E6FD"/>
</linearGradient>
<linearGradient id="paint11_linear" x1="36.3642" y1="3.27979" x2="36.3642" y2="95.2154" gradientUnits="userSpaceOnUse">
<stop stop-color="#BEC8FF"/>
<stop offset="1" stop-color="#E6E6FD"/>
</linearGradient>
<linearGradient id="paint12_linear" x1="36.3642" y1="3.27979" x2="36.3642" y2="95.2154" gradientUnits="userSpaceOnUse">
<stop stop-color="#BEC8FF"/>
<stop offset="1" stop-color="#E6E6FD"/>
</linearGradient>
<linearGradient id="paint13_linear" x1="36.3642" y1="3.27979" x2="36.3642" y2="95.2154" gradientUnits="userSpaceOnUse">
<stop stop-color="#BEC8FF"/>
<stop offset="1" stop-color="#E6E6FD"/>
</linearGradient>
<linearGradient id="paint14_linear" x1="36.3642" y1="3.27979" x2="36.3642" y2="95.2154" gradientUnits="userSpaceOnUse">
<stop stop-color="#BEC8FF"/>
<stop offset="1" stop-color="#E6E6FD"/>
</linearGradient>
</defs>
</svg>
